<?xml version="1.0" encoding="UTF-8" standalone="no"?>
<svg
   xmlns:dc="http://purl.org/dc/elements/1.1/"
   xmlns:cc="http://creativecommons.org/ns#"
   xmlns:rdf="http://www.w3.org/1999/02/22-rdf-syntax-ns#"
   xmlns:svg="http://www.w3.org/2000/svg"
   xmlns="http://www.w3.org/2000/svg"
   id="svg13"
   viewBox="0 0 1800 1800"
   clip-rule="evenodd"
   fill-rule="evenodd"
   image-rendering="optimizeQuality"
   text-rendering="geometricPrecision"
   shape-rendering="geometricPrecision"
   version="1.1"
   height="18mm"
   width="18mm"
   xml:space="preserve"><metadata
   id="metadata19"><rdf:RDF><cc:Work
       rdf:about=""><dc:format>image/svg+xml</dc:format><dc:type
         rdf:resource="http://purl.org/dc/dcmitype/StillImage" /><dc:title></dc:title></cc:Work></rdf:RDF></metadata><defs
   id="defs17" />
 <g
   id="Layer_x0020_1">
  <metadata
   id="CorelCorpID_0Corel-Layer" />
  <rect
   id="rect3"
   height="1800"
   width="1800"
   fill="none" />
  <g
   id="_271487512">
   <path
   fill="red"
   style="stroke:#00ff00;fill:#00ff00"
   id="path5"
   d="M900 600c166,0 300,134 300,300 0,166 -134,300 -300,300 -166,0 -300,-134 -300,-300 0,-166 134,-300 300,-300z" />
   <path
   style="stroke:#00ff00;fill:#ffff00"
   fill="#FFDB12"
   id="path7"
   d="M900 725c97,0 175,78 175,175 0,97 -78,175 -175,175 -97,0 -175,-78 -175,-175 0,-97 78,-175 175,-175z" />
   <path
   style="stroke:#00ff00;fill:#00ff00"
   fill="black"
   id="path9"
   d="M879 879c12,-12 31,-12 42,0 12,12 12,31 0,42 -11,12 -30,12 -42,0 -12,-11 -12,-30 0,-42z" />
  </g>
 </g>
</svg>