<?xml version="1.0" encoding="UTF-8" standalone="no"?>
<svg
   xmlns:dc="http://purl.org/dc/elements/1.1/"
   xmlns:cc="http://creativecommons.org/ns#"
   xmlns:rdf="http://www.w3.org/1999/02/22-rdf-syntax-ns#"
   xmlns:svg="http://www.w3.org/2000/svg"
   xmlns="http://www.w3.org/2000/svg"
   xmlns:sodipodi="http://sodipodi.sourceforge.net/DTD/sodipodi-0.dtd"
   xmlns:inkscape="http://www.inkscape.org/namespaces/inkscape"
   id="svg13"
   viewBox="0 0 608.54172 608.54164"
   version="1.1"
   height="23"
   width="23"
   xml:space="preserve"
   sodipodi:docname="targetwpt23.svg"
   style="clip-rule:evenodd;fill-rule:evenodd;image-rendering:optimizeQuality;shape-rendering:geometricPrecision;text-rendering:geometricPrecision"
   inkscape:version="0.92.4 (unknown)"
   inkscape:export-filename="/home/martinejeanpierre/Documents/projets/targetwpt23.png"
   inkscape:export-xdpi="96"
   inkscape:export-ydpi="96"><sodipodi:namedview
   pagecolor="#ffffff"
   bordercolor="#666666"
   borderopacity="1"
   objecttolerance="10"
   gridtolerance="10"
   guidetolerance="10"
   inkscape:pageopacity="0"
   inkscape:pageshadow="2"
   inkscape:window-width="1366"
   inkscape:window-height="716"
   id="namedview31"
   showgrid="false"
   fit-margin-top="0"
   fit-margin-left="0"
   fit-margin-right="0"
   fit-margin-bottom="0"
   units="px"
   width="31px"
   inkscape:zoom="3.4689815"
   inkscape:cx="-26.809021"
   inkscape:cy="-12.107304"
   inkscape:window-x="0"
   inkscape:window-y="0"
   inkscape:window-maximized="1"
   inkscape:current-layer="_271487512" /><metadata
   id="metadata19"><rdf:RDF><cc:Work
       rdf:about=""><dc:format>image/svg+xml</dc:format><dc:type
         rdf:resource="http://purl.org/dc/dcmitype/StillImage" /><dc:title></dc:title></cc:Work></rdf:RDF></metadata><defs
   id="defs17" />
 <g
   id="Layer_x0020_1"
   transform="matrix(0.98305085,0,0,1,-572.0339,-596.54211)">
  <metadata
   id="CorelCorpID_0Corel-Layer" />
  <rect
   id="rect3"
   height="1800"
   width="1800"
   x="0"
   y="0"
   style="fill:none" />
  <g
   id="_271487512">
   <path
   style="fill:#008000;stroke:#00ff00"
   id="path5"
   d="m 900,600 c 166,0 300,134 300,300 0,166 -134,300 -300,300 -166,0 -300,-134 -300,-300 0,-166 134,-300 300,-300 z"
   inkscape:connector-curvature="0" />
   <path
   style="fill:#ffff00;stroke:#00ff00"
   id="path7"
   d="m 899.99996,732.62713 c 97,0 175.00004,78 175.00004,175 0,96.99997 -78.00004,174.99997 -175.00004,174.99997 -97,0 -175,-78 -175,-174.99997 0,-97 78,-175 175,-175 z"
   inkscape:connector-curvature="0" />
   <path
   style="fill:#008000;stroke:#00ff00"
   id="path9"
   d="m 879,879 c 12,-12 31,-12 42,0 12,12 12,31 0,42 -11,12 -30,12 -42,0 -12,-11 -12,-30 0,-42 z"
   inkscape:connector-curvature="0" />
  </g>
 </g>
</svg>