<?xml version="1.0" encoding="UTF-8" standalone="no"?>
<svg
   xmlns:dc="http://purl.org/dc/elements/1.1/"
   xmlns:cc="http://creativecommons.org/ns#"
   xmlns:rdf="http://www.w3.org/1999/02/22-rdf-syntax-ns#"
   xmlns:svg="http://www.w3.org/2000/svg"
   xmlns="http://www.w3.org/2000/svg"
   xmlns:sodipodi="http://sodipodi.sourceforge.net/DTD/sodipodi-0.dtd"
   xmlns:inkscape="http://www.inkscape.org/namespaces/inkscape"
   viewBox="0 0 32 32"
   width="32"
   height="32"
   version="1.1"
   id="svg76"
   sodipodi:docname="setting.svg"
   inkscape:version="0.92.4 (unknown)">
  <metadata
     id="metadata82">
    <rdf:RDF>
      <cc:Work
         rdf:about="">
        <dc:format>image/svg+xml</dc:format>
        <dc:type
           rdf:resource="http://purl.org/dc/dcmitype/StillImage" />
        <dc:title></dc:title>
      </cc:Work>
    </rdf:RDF>
  </metadata>
  <defs
     id="defs80" />
  <sodipodi:namedview
     pagecolor="#ffffff"
     bordercolor="#666666"
     borderopacity="1"
     objecttolerance="10"
     gridtolerance="10"
     guidetolerance="10"
     inkscape:pageopacity="0"
     inkscape:pageshadow="2"
     inkscape:window-width="1366"
     inkscape:window-height="716"
     id="namedview78"
     showgrid="false"
     inkscape:zoom="2.36"
     inkscape:cx="-17.79661"
     inkscape:cy="50"
     inkscape:window-x="0"
     inkscape:window-y="0"
     inkscape:window-maximized="1"
     inkscape:current-layer="svg76" />
  <path
     d="m 29.736328,16.443676 c -0.0403,-1.906055 1.00668,-3.113221 2.760194,-3.782677 C 32.389353,11.619677 31.159338,8.6937896 30.536741,7.9967717 28.85388,8.7727414 27.259689,8.6550144 25.918237,7.3497405 24.554973,6.0239125 24.447809,4.4374017 25.239686,2.7439105 23.760723,1.8474109 22.175543,1.1994456 20.480355,0.81169431 19.907072,2.4547321 18.795123,3.484375 17.051567,3.6109781 14.985569,3.7609395 13.646488,2.7088724 12.938065,0.82804479 11.242403,1.2368196 9.662912,1.8824489 8.1972247,2.7864229 9.0038033,4.4644977 8.8994836,6.0337228 7.573205,7.3618878 6.2308053,8.7068704 4.6247608,8.8316049 2.9001731,8.0500291 2.0016037,9.5066658 1.3562468,11.065146 0.96931651,12.734345 2.692957,13.357083 3.732357,14.521739 3.7759807,16.328753 c 0.045046,1.879426 -0.9829721,3.109018 -2.7540303,3.787348 0.4077935,1.655652 1.0725922,3.196379 1.989654,4.639001 1.672429,-0.733925 3.2339006,-0.612461 4.5516431,0.6503 1.3433489,1.287055 1.5055178,2.841796 0.762954,4.522208 1.4789636,0.886221 3.0527635,1.519705 4.7365735,1.902784 0.02512,-0.04952 0.0441,-0.07895 0.05642,-0.110719 0.608371,-1.562685 1.991077,-2.562429 3.572463,-2.58205 1.690922,-0.02103 3.091646,0.907712 3.739374,2.494689 0.07065,0.17332 0.151264,0.169116 0.302052,0.131742 1.523537,-0.379342 2.960298,-0.96424 4.310286,-1.75656 0.07349,-0.04345 0.143677,-0.09297 0.202,-0.130808 -0.686137,-1.524376 -0.623545,-2.970268 0.47323,-4.229292 1.318218,-1.513164 2.975474,-1.735537 4.819083,-0.96237 0.909475,-1.448695 1.565263,-2.992692 1.964048,-4.64554 -1.698509,-0.640958 -2.727002,-1.787861 -2.765411,-3.59581 z M 16.73197,19.046282 c -1.535865,-0.007 -2.772998,-1.232863 -2.765885,-2.740888 0.0072,-1.511296 1.257523,-2.723602 2.804768,-2.70912 1.545822,0.01448 2.779163,1.276776 2.73459,2.80489 -0.04125,1.421131 -1.213898,2.636708 -2.773473,2.645118 z"
     id="path2"
     inkscape:connector-curvature="0"
     style="fill:#a3a3cd;stroke-width:0.47066146" />
  <path
     d="m 13.044755,32.295696 c -0.0294,0 -0.05927,-0.0032 -0.08867,-0.0098 C 11.238134,31.894863 9.5974749,31.235687 8.0796288,30.32704 7.8771538,30.205576 7.7965441,29.955641 7.8913794,29.741209 8.5955348,28.148626 8.3802578,26.839614 7.2327451,25.74083 6.1127342,24.666806 4.7940435,24.485077 3.2050701,25.182095 2.9897921,25.276002 2.7361067,25.201247 2.6099757,25.003168 1.6654109,23.516633 0.97642926,21.909568 0.56199721,20.225886 0.50604338,19.998842 0.62980492,19.765723 0.85077236,19.680699 2.5393232,19.033201 3.3411587,17.94049 3.302276,16.339497 3.265291,14.80204 2.4487549,13.765857 0.80619936,13.17255 0.58191206,13.091724 0.45435871,12.859079 0.5074668,12.630165 0.9019829,10.928265 1.5710497,9.3057826 2.4952244,7.8075678 2.6204071,7.6052827 2.8797831,7.5258639 3.0983799,7.6258385 4.7414096,8.370975 6.0937677,8.1780337 7.2351157,7.0344013 8.3612901,5.906652 8.5353139,4.5822247 7.7685671,2.9863712 7.6651956,2.7724073 7.7415416,2.515931 7.9454356,2.3907297 9.4286673,1.4764778 11.070749,0.79814625 12.825211,0.37442279 c 0.238511,-0.0560605 0.474178,0.0691408 0.557635,0.2915143 0.677126,1.79720361 1.863523,2.60634231 3.634106,2.47973931 1.461894,-0.1065149 2.476635,-0.9422822 3.014829,-2.4848777 0.07871,-0.22657775 0.318649,-0.35785273 0.555738,-0.30272645 1.725536,0.39475905 3.374256,1.06374685 4.900164,1.98921085 0.204371,0.1237995 0.28261,0.3788751 0.182085,0.5933056 -0.759635,1.6248178 -0.56949,2.9585889 0.581342,4.0779286 1.129021,1.09785 2.502244,1.2856524 4.084105,0.5559327 0.189197,-0.087825 0.417277,-0.041574 0.55716,0.1144566 0.679499,0.760553 1.959781,3.7994954 2.075482,4.9263104 0.02134,0.208824 -0.101478,0.406437 -0.300631,0.482586 -1.687602,0.644695 -2.491335,1.736005 -2.457194,3.336997 0,4.67e-4 0,4.67e-4 0,4.67e-4 0.03177,1.519705 0.836925,2.556822 2.460514,3.169283 0.221915,0.08363 0.346624,0.316274 0.29162,0.544253 -0.404949,1.682747 -1.085395,3.291682 -2.021899,4.783356 -0.12376,0.196211 -0.375076,0.275163 -0.588931,0.184065 -1.746873,-0.732523 -3.145229,-0.459229 -4.273775,0.836702 -0.923227,1.060476 -1.054099,2.282593 -0.399733,3.73596 0.09389,0.208358 0.02086,0.454089 -0.172601,0.579291 l -0.05216,0.03457 c -0.05121,0.03458 -0.108586,0.07241 -0.167386,0.106983 -1.381281,0.810073 -2.874471,1.418328 -4.43689,1.807948 -0.51401,0.128005 -0.752523,-0.150896 -0.858738,-0.409708 -0.563799,-1.382357 -1.774377,-2.203174 -3.244331,-2.203174 -0.01612,0 -0.03272,0 -0.04931,4.66e-4 -1.393136,0.01729 -2.595179,0.891829 -3.136218,2.282594 -0.01232,0.03364 -0.03082,0.071 -0.05548,0.116792 -0.08346,0.165845 -0.27218,0.291048 -0.459954,0.291048 z M 8.917028,29.729063 c 1.219589,0.69001 2.518839,1.211372 3.871671,1.554742 0.733554,-1.580904 2.231012,-2.592795 3.897276,-2.61335 1.823218,-0.0098 3.348177,0.944151 4.102122,2.596065 1.377015,-0.360655 2.667255,-0.88809 3.868824,-1.576232 -0.607896,-1.621548 -0.368436,-3.117428 0.701785,-4.347019 1.307311,-1.501018 3.021469,-1.926142 4.97888,-1.236132 0.709845,-1.196424 1.248513,-2.468061 1.60462,-3.791086 -1.741185,-0.777372 -2.642123,-2.07517 -2.680058,-3.862097 v 0 C 29.222319,14.58901 30.155026,13.186098 31.964493,12.375091 31.728352,11.360864 30.911342,9.4066914 30.376942,8.5737269 28.56795,9.2838256 26.916858,8.9782962 25.584889,7.6828334 24.251024,6.3850342 23.929056,4.750406 24.641748,2.9363843 23.422634,2.2393664 22.124807,1.7119316 20.774345,1.3648234 20.07019,3.0176715 18.802709,3.9529469 17.08713,4.077214 15.040574,4.2304456 13.513719,3.2961054 12.655454,1.3825767 11.282707,1.7497722 9.9886722,2.2837472 8.7975356,2.9742249 9.5187615,4.7592821 9.2167088,6.3826983 7.9117694,7.6898408 6.5916552,9.0123997 4.9348741,9.337083 3.0983799,8.6395979 2.4008621,9.8388236 1.8740493,11.117936 1.527425,12.451707 c 1.7416589,0.755415 2.6805332,2.084981 2.7236839,3.865834 0.044569,1.855599 -0.8758088,3.255709 -2.6677312,4.071388 0.3632214,1.322091 0.9080527,2.59186 1.624063,3.78361 1.7767487,-0.651702 3.389905,-0.344303 4.6872574,0.898837 1.327701,1.272104 1.6771715,2.875432 1.0223299,4.657687 z M 16.73197,19.513452 c -9.48e-4,0 -0.0014,0 -0.0024,0 -1.793345,-0.0088 -3.246229,-1.448695 -3.237694,-3.210393 0.0038,-0.853988 0.345676,-1.65425 0.96116,-2.252696 0.619752,-0.602181 1.421114,-0.935274 2.322054,-0.92126 0.87486,0.0084 1.691396,0.354583 2.298818,0.975919 0.608846,0.622739 0.930339,1.44309 0.905682,2.309223 -0.05026,1.728062 -1.475643,3.088929 -3.24528,3.099207 -4.74e-4,0 -0.0014,0 -0.0024,0 z m 0.01091,-5.450008 c -0.614536,0 -1.190662,0.230783 -1.624062,0.652171 -0.434823,0.422788 -0.67618,0.988064 -0.679024,1.592115 -0.0056,1.245475 1.021855,2.264373 2.291232,2.271381 1.254677,-0.0084 2.264677,-0.970312 2.300241,-2.191028 0.01802,-0.613395 -0.209587,-1.194087 -0.640616,-1.634628 -0.429131,-0.43914 -1.006208,-0.684405 -1.62501,-0.690011 -0.0072,0 -0.0147,0 -0.02276,0 z"
     id="path4"
     inkscape:connector-curvature="0"
     style="fill:#1f212b;stroke-width:0.47066146" />
  <path
     d="M 26.635195,13.838735 C 25.24348,8.4527299 19.683259,5.1979555 14.216451,6.5690995 8.7496427,7.9402441 5.446039,13.418282 6.8377538,18.804288 c 1.3917148,5.386005 6.9519362,8.640779 12.4187442,7.269635 5.466809,-1.371145 8.770415,-6.849182 7.378697,-12.235188 z m -7.886542,10.27027 C 14.382889,25.204052 9.9426769,22.604716 8.8316759,18.303481 7.7202012,14.002245 10.358533,9.6276632 14.724297,8.5330831 c 4.365765,-1.0950466 8.805975,1.5042879 9.916977,5.8055249 1.111,4.301236 -1.526857,8.675817 -5.892621,9.770397 z"
     id="path6"
     inkscape:connector-curvature="0"
     style="fill:#7777ab;stroke-width:0.47066146" />
  <path
     d="m 16.772749,24.690632 c -3.702387,0 -7.0847058,-2.463389 -8.0387541,-6.156837 -1.128545,-4.366639 1.5595751,-8.8239105 5.9917241,-9.9353081 4.427882,-1.1123319 8.956291,1.5360551 10.084362,5.9031621 1.128546,4.366641 -1.559574,8.823911 -5.991724,9.935309 v 0 c -0.683766,0.171919 -1.369902,0.253674 -2.045608,0.253674 z m -0.0018,-15.8819185 c -0.637296,0 -1.284551,0.077551 -1.929434,0.2391911 -4.180362,1.0483294 -6.7157949,5.2528624 -5.6517379,9.3723694 1.0645319,4.119039 5.3326159,6.615597 9.5129769,5.568201 v 0 c 4.18036,-1.04833 6.715795,-5.252862 5.651738,-9.372369 C 23.45403,11.132885 20.262806,8.8087135 16.770953,8.8087135 Z m 1.98918,15.4040035 h 0.0047 z M 7.073421,13.179091 c -0.026559,0 -0.053107,-0.0047 -0.079666,-0.01355 C 6.8714154,13.122091 6.8078759,12.989419 6.8519747,12.868888 8.0355253,9.6225227 10.765374,7.1768873 14.153856,6.327572 c 0.128502,-0.031305 0.25416,0.043449 0.28593,0.1672461 0.03177,0.1242672 -0.0441,0.2499361 -0.169757,0.281704 -3.236745,0.8114748 -5.8442547,3.1477931 -6.9751712,6.2493359 -0.03462,0.09436 -0.1251828,0.153232 -0.2214416,0.153232 z"
     id="path8"
     inkscape:connector-curvature="0"
     style="fill:#1f212b;stroke-width:0.47066146" />
  <path
     d="m 16.988502,26.571459 c -1.056946,0 -2.133332,-0.152765 -3.200234,-0.465302 -3.638848,-1.064681 -6.3397717,-3.752778 -7.2260119,-7.190683 -0.031767,-0.124267 0.044102,-0.249936 0.1697557,-0.281704 0.1285027,-0.03224 0.2541607,0.04391 0.2859305,0.167247 0.8449861,3.278133 3.4264167,5.842431 6.9045187,6.860395 3.504182,1.026373 7.11695,0.256943 9.664713,-2.056016 0.09483,-0.08689 0.244202,-0.08081 0.3324,0.01355 0.08819,0.0939 0.08203,0.240592 -0.01376,0.327486 -1.893397,1.71872 -4.344901,2.625029 -6.917321,2.625029 z"
     id="path10"
     inkscape:connector-curvature="0"
     style="fill:#1f212b;stroke-width:0.47066146" />
  <path
     d="m 25.762233,21.21582 c -0.211959,0.382612 -0.4481,0.752145 -0.707476,1.105325"
     id="path12"
     inkscape:connector-curvature="0"
     style="fill:#a3a3cd;stroke-width:0.47066146" />
  <path
     d="m 25.055231,22.552862 c -0.04836,0 -0.09625,-0.01402 -0.137986,-0.04391 -0.10527,-0.07522 -0.128503,-0.220038 -0.05263,-0.323748 0.251314,-0.341503 0.484137,-0.705429 0.691827,-1.080098 0.06259,-0.112589 0.207216,-0.152299 0.319123,-0.0925 0.114276,0.06167 0.156004,0.202283 0.09389,0.314404 -0.217174,0.392424 -0.460902,0.772233 -0.723123,1.130553 -0.04694,0.06213 -0.118544,0.0953 -0.191094,0.0953 z"
     id="path14"
     inkscape:connector-curvature="0"
     style="fill:#1f212b;stroke-width:0.47066146" />
  <path
     d="m 26.767016,18.606674 c -0.14083,0.607321 -0.338562,1.201562 -0.589878,1.773379"
     id="path16"
     inkscape:connector-curvature="0"
     style="fill:#a3a3cd;stroke-width:0.47066146" />
  <path
     d="m 26.177138,20.611769 c -0.0313,0 -0.06306,-0.0061 -0.09341,-0.01915 -0.119019,-0.05046 -0.174025,-0.187336 -0.122338,-0.304595 0.245151,-0.557334 0.439089,-1.140363 0.576601,-1.732734 0.02892,-0.125201 0.154108,-0.203686 0.281662,-0.174254 0.127081,0.0285 0.206268,0.152764 0.176869,0.277498 -0.143676,0.619935 -0.346624,1.230527 -0.603156,1.814022 -0.03888,0.08737 -0.125656,0.139217 -0.216226,0.139217 z m 0.525865,-6.515623 c -0.10527,0 -0.201052,-0.06961 -0.227606,-0.174722 -0.833133,-3.224409 -3.237219,-5.8055239 -6.431288,-6.9029067 -0.122812,-0.042512 -0.187774,-0.174255 -0.145098,-0.2952521 0.04268,-0.1214636 0.178292,-0.1849984 0.299681,-0.1429536 3.343909,1.1492388 5.859902,3.8508844 6.731917,7.2271234 0.03177,0.124267 -0.0441,0.249936 -0.169756,0.281704 -0.01944,0.0047 -0.03889,0.007 -0.05785,0.007 z"
     id="path18"
     inkscape:connector-curvature="0"
     style="fill:#1f212b;stroke-width:0.47066146" />
  <path
     d="M 20.399744,9.1763764 23.130065,8.5251411"
     id="path20"
     inkscape:connector-curvature="0"
     style="fill:#a3a3cd;stroke-width:0.47066146" />
  <path
     d="m 20.399269,9.4080929 c -0.106691,0 -0.202475,-0.07101 -0.228554,-0.1775248 -0.03034,-0.1242672 0.04743,-0.2494689 0.17355,-0.2798349 L 23.075061,8.299498 c 0.12708,-0.028498 0.252736,0.046717 0.284033,0.1709842 0.03034,0.1242674 -0.04743,0.249469 -0.173549,0.279835 l -2.730797,0.6512352 c -0.01896,0.00421 -0.03747,0.00654 -0.05549,0.00654 z"
     id="path22"
     inkscape:connector-curvature="0"
     style="fill:#1f212b;stroke-width:0.47066146" />
  <path
     d="m 22.780122,10.722243 2.054142,-0.334494"
     id="path24"
     inkscape:connector-curvature="0"
     style="fill:#a3a3cd;stroke-width:0.47066146" />
  <path
     d="m 22.779647,10.953959 c -0.112854,0 -0.212432,-0.08036 -0.2314,-0.193875 -0.02134,-0.126603 0.06544,-0.245265 0.193465,-0.266287 l 2.054143,-0.334495 c 0.124236,-0.02383 0.248944,0.06401 0.270283,0.190606 0.02134,0.126603 -0.06544,0.245264 -0.193466,0.266287 l -2.054141,0.334494 c -0.01328,0.0023 -0.02608,0.0032 -0.03889,0.0032 z"
     id="path26"
     inkscape:connector-curvature="0"
     style="fill:#1f212b;stroke-width:0.47066146" />
  <path
     d="m 24.111616,12.798347 2.083541,-0.220972"
     id="path28"
     inkscape:connector-curvature="0"
     style="fill:#a3a3cd;stroke-width:0.47066146" />
  <path
     d="m 24.111141,13.030064 c -0.118545,0 -0.220493,-0.08782 -0.233296,-0.206957 -0.01376,-0.126603 0.07967,-0.241526 0.208639,-0.255075 l 2.083542,-0.221439 c 0.120441,-0.01496 0.24515,0.07756 0.258902,0.205556 0.01376,0.126603 -0.07967,0.241526 -0.208639,0.255074 l -2.083542,0.221439 c -0.0085,9.35e-4 -0.0166,0.0014 -0.02561,0.0014 z"
     id="path30"
     inkscape:connector-curvature="0"
     style="fill:#1f212b;stroke-width:0.47066146" />
  <path
     d="m 12.834695,7.1278347 0.205319,1.8794262"
     id="path32"
     inkscape:connector-curvature="0"
     style="fill:#a3a3cd;stroke-width:0.47066146" />
  <path
     d="m 13.040014,9.23851 c -0.118545,0 -0.220493,-0.087829 -0.233296,-0.2069563 L 12.600924,7.1530624 c -0.01375,-0.1266031 0.07967,-0.2415275 0.208639,-0.2550746 0.119493,-0.01308 0.24515,0.078014 0.258902,0.2055543 l 0.205793,1.8784915 c 0.01376,0.1266031 -0.07967,0.2415271 -0.208639,0.255075 -0.0085,9.344e-4 -0.01707,0.00141 -0.02561,0.00141 z"
     id="path34"
     inkscape:connector-curvature="0"
     style="fill:#1f212b;stroke-width:0.47066146" />
  <path
     d="M 10.808529,8.1808368 11.43729,10.257875"
     id="path36"
     inkscape:connector-curvature="0"
     style="fill:#a3a3cd;stroke-width:0.47066146" />
  <path
     d="m 11.43729,10.489592 c -0.101478,0 -0.194887,-0.06493 -0.22571,-0.165379 L 10.582819,8.2476422 c -0.03699,-0.1228659 0.03367,-0.2518048 0.158376,-0.2882441 0.124709,-0.035038 0.255582,0.032702 0.292568,0.1560349 l 0.628761,2.076572 c 0.03699,0.122864 -0.03367,0.251804 -0.158375,0.288244 -0.02182,0.0061 -0.04457,0.0093 -0.06686,0.0093 z"
     id="path38"
     inkscape:connector-curvature="0"
     style="fill:#1f212b;stroke-width:0.47066146" />
  <path
     d="m 8.7747749,10.016348 1.2390291,1.807949"
     id="path40"
     inkscape:connector-curvature="0"
     style="fill:#a3a3cd;stroke-width:0.47066146" />
  <path
     d="m 10.013804,12.056014 c -0.075391,0 -0.1493664,-0.0355 -0.1948875,-0.102313 L 8.580361,10.145754 C 8.507812,10.039707 8.5357921,9.8958184 8.643905,9.8243413 c 0.1076352,-0.071942 0.2536866,-0.044375 0.3262354,0.0626 L 10.208696,11.69489 c 0.07255,0.106048 0.04457,0.249936 -0.06354,0.321414 -0.04031,0.0271 -0.08583,0.03971 -0.131348,0.03971 z"
     id="path42"
     inkscape:connector-curvature="0"
     style="fill:#1f212b;stroke-width:0.47066146" />
  <path
     d="M 7.2953366,20.149737 9.408278,20.041354"
     id="path44"
     inkscape:connector-curvature="0"
     style="fill:#a3a3cd;stroke-width:0.47066146" />
  <path
     d="m 7.2953366,20.381453 c -0.1247087,0 -0.2280802,-0.09577 -0.2347189,-0.220036 -0.00716,-0.127537 0.092468,-0.236855 0.222864,-0.243396 l 2.1124672,-0.107916 c 0.1441509,-0.007 0.2404085,0.09156 0.2470471,0.21957 0.00716,0.127537 -0.092468,0.236855 -0.2228641,0.243396 l -2.1124662,0.107916 c -0.00423,4.66e-4 -0.00857,4.66e-4 -0.012325,4.66e-4 z"
     id="path46"
     inkscape:connector-curvature="0"
     style="fill:#1f212b;stroke-width:0.47066146" />
  <path
     d="m 8.568033,22.408972 2.05035,-0.602182"
     id="path48"
     inkscape:connector-curvature="0"
     style="fill:#a3a3cd;stroke-width:0.47066146" />
  <path
     d="m 8.568033,22.641157 c -0.1014726,0 -0.194888,-0.06493 -0.2257096,-0.165379 -0.036985,-0.122866 0.033665,-0.251805 0.1583761,-0.288244 l 2.0503495,-0.602649 c 0.12376,-0.0355 0.255583,0.03317 0.292568,0.156034 0.03698,0.122866 -0.03367,0.251805 -0.158375,0.288244 l -2.0503505,0.60265 c -0.021818,0.0061 -0.044569,0.0093 -0.066853,0.0093 z"
     id="path50"
     inkscape:connector-curvature="0"
     style="fill:#1f212b;stroke-width:0.47066146" />
  <path
     d="m 10.773438,24.298676 1.730754,-0.875944"
     id="path52"
     inkscape:connector-curvature="0"
     style="fill:#a3a3cd;stroke-width:0.47066146" />
  <path
     d="m 10.772965,24.53086 c -0.08535,0 -0.16786,-0.04625 -0.209113,-0.126136 -0.05927,-0.113522 -0.01376,-0.253674 0.10195,-0.312069 l 1.730754,-0.875945 c 0.113802,-0.05747 0.257004,-0.01355 0.31675,0.100434 0.05927,0.113522 0.01375,0.253673 -0.10195,0.31207 l -1.730753,0.875944 c -0.03414,0.01729 -0.07065,0.02569 -0.107635,0.02569 z"
     id="path54"
     inkscape:connector-curvature="0"
     style="fill:#1f212b;stroke-width:0.47066146" />
  <path
     d="m 13.5967,25.599278 1.27886,-1.204365"
     id="path56"
     inkscape:connector-curvature="0"
     style="fill:#a3a3cd;stroke-width:0.47066146" />
  <path
     d="m 13.5967,25.831461 c -0.06211,0 -0.123761,-0.02429 -0.169756,-0.07148 -0.08962,-0.0925 -0.08678,-0.239191 0.0076,-0.327486 l 1.278861,-1.204828 c 0.09342,-0.08829 0.242779,-0.08503 0.332399,0.0075 0.08963,0.0925 0.08677,0.239191 -0.0076,0.327486 l -1.27886,1.204832 c -0.04553,0.04251 -0.104315,0.06401 -0.162643,0.06401 z"
     id="path58"
     inkscape:connector-curvature="0"
     style="fill:#1f212b;stroke-width:0.47066146" />
  <path
     d="m 16.643299,26.32853 0.99293,-1.82243"
     id="path60"
     inkscape:connector-curvature="0"
     style="fill:#a3a3cd;stroke-width:0.47066146" />
  <path
     d="m 16.642824,26.560247 c -0.03793,0 -0.07587,-0.0088 -0.110957,-0.02757 -0.114278,-0.06074 -0.157428,-0.201352 -0.09625,-0.313939 l 0.993405,-1.822431 c 0.06211,-0.113523 0.205793,-0.1551 0.318648,-0.09484 0.114277,0.06074 0.157427,0.201351 0.09625,0.313939 l -0.993406,1.82243 c -0.04268,0.07848 -0.12376,0.122399 -0.20769,0.122399 z"
     id="path62"
     inkscape:connector-curvature="0"
     style="fill:#1f212b;stroke-width:0.47066146" />
  <g
     id="g68"
     transform="matrix(0.47417885,0,0,0.4671702,-6.9727045,-7.0372324)">
    <path
       d="m 56.737,70.305 0.329,-4.101"
       id="path64"
       inkscape:connector-curvature="0"
       style="fill:#a3a3cd" />
    <path
       d="m 56.738,70.801 c -0.014,0 -0.027,-0.001 -0.041,-0.002 -0.272,-0.021 -0.477,-0.261 -0.454,-0.534 l 0.329,-4.102 c 0.021,-0.272 0.267,-0.473 0.534,-0.454 0.272,0.021 0.477,0.261 0.454,0.534 l -0.329,4.102 c -0.02,0.259 -0.237,0.456 -0.493,0.456 z"
       id="path66"
       inkscape:connector-curvature="0"
       style="fill:#1f212b" />
  </g>
  <g
     id="g74"
     transform="matrix(0.47417885,0,0,0.4671702,-6.9727045,-7.0372324)">
    <path
       d="m 46.887,28.598 c 1.321,-0.181 2.659,-0.239 3.991,-0.174"
       id="path70"
       inkscape:connector-curvature="0"
       style="fill:#a3a3cd" />
    <path
       d="m 46.886,29.094 c -0.244,0 -0.456,-0.181 -0.49,-0.429 -0.037,-0.271 0.152,-0.521 0.424,-0.559 1.346,-0.185 2.718,-0.245 4.082,-0.178 0.273,0.013 0.484,0.245 0.471,0.52 -0.013,0.272 -0.208,0.506 -0.52,0.471 -1.3,-0.063 -2.613,-0.005 -3.898,0.17 -0.024,0.003 -0.046,0.005 -0.069,0.005 z"
       id="path72"
       inkscape:connector-curvature="0"
       style="fill:#1f212b" />
  </g>
</svg>
